<svg xmlns="http://www.w3.org/2000/svg" width="1184" height="99.999"><g data-name="back"><path d="M1156.25 100H388.434c-14.606-.003-26.49-7.637-26.49-17.017V39.592c0-2.297-.7-4.526-2.082-6.623-1.334-2.027-3.244-3.846-5.678-5.41-2.433-1.562-5.267-2.789-8.422-3.646-3.267-.888-6.737-1.338-10.314-1.338H229.464c-3.576 0-7.047.45-10.313 1.338-3.156.857-5.99 2.084-8.422 3.647-2.434 1.563-4.344 3.382-5.678 5.409-1.382 2.098-2.082 4.326-2.082 6.623v43.391c0 9.38-11.883 17.014-26.489 17.016H27.75c-3.747 0-7.38-.629-10.802-1.87-3.304-1.2-6.272-2.917-8.82-5.103-2.549-2.187-4.55-4.733-5.947-7.568C.734 82.523 0 79.404 0 76.19V23.81c0-3.214.734-6.332 2.18-9.268 1.398-2.835 3.4-5.38 5.948-7.568 2.548-2.186 5.516-3.903 8.82-5.102C20.37.629 24.003 0 27.75 0h1128.5c3.747 0 7.381.63 10.802 1.87 3.305 1.2 6.272 2.917 8.82 5.103 2.549 2.187 4.55 4.733 5.947 7.568 1.447 2.935 2.181 6.054 2.181 9.268V76.19c0 3.215-.734 6.333-2.18 9.268-1.398 2.835-3.4 5.381-5.947 7.568-2.549 2.187-5.516 3.903-8.821 5.103-3.42 1.241-7.055 1.87-10.802 1.87Z" fill="#121821" fill-rule="evenodd" data-name="back-white-shadow"/></g></svg>