<svg xmlns="http://www.w3.org/2000/svg" width="1184" height="100"><g data-name="back"><path d="M1156.25 100H693.608c-13.2-.002-23.94-7.635-23.94-17.016v-43.39c0-2.298-.632-4.527-1.88-6.625-1.207-2.026-2.934-3.846-5.133-5.408-4.523-3.214-10.536-4.984-16.932-4.984h-95.781c-6.397 0-12.41 1.77-16.932 4.984-2.2 1.562-3.926 3.382-5.132 5.408-1.249 2.098-1.882 4.327-1.882 6.624v43.391c0 9.381-10.738 17.014-23.938 17.016H27.75c-3.746 0-7.38-.63-10.801-1.87-3.305-1.2-6.273-2.917-8.821-5.103-2.549-2.187-4.55-4.734-5.947-7.569C.734 82.523 0 79.405 0 76.191V23.81c0-3.215.734-6.333 2.18-9.268 1.398-2.835 3.4-5.381 5.948-7.568 2.548-2.187 5.516-3.904 8.82-5.103C20.37.63 24.005 0 27.75 0h1128.5c3.746 0 7.38.63 10.802 1.871 3.304 1.199 6.271 2.916 8.82 5.103 2.549 2.186 4.55 4.733 5.947 7.568 1.447 2.935 2.181 6.053 2.181 9.268v52.38c0 3.215-.734 6.333-2.18 9.268-1.398 2.836-3.4 5.382-5.947 7.569-2.55 2.186-5.517 3.903-8.821 5.102-3.421 1.242-7.056 1.871-10.802 1.871Z" fill="#121821" fill-rule="evenodd" data-name="back-white-shadow"/></g></svg>