<svg xmlns="http://www.w3.org/2000/svg" width="1184" height="99.999" viewBox="0 -0.37 1184 99.999"><path d="M1156.25 99.63H388.434c-14.607-.003-26.49-7.637-26.49-17.017V39.222c0-2.297-.7-4.526-2.082-6.624-1.335-2.026-3.245-3.846-5.678-5.409-2.433-1.562-5.267-2.79-8.422-3.646-3.267-.888-6.737-1.338-10.314-1.338H229.464c-3.577 0-7.047.45-10.314 1.338-3.155.857-5.989 2.084-8.421 3.646-2.434 1.563-4.344 3.383-5.679 5.41-1.381 2.097-2.082 4.326-2.082 6.623v43.391c0 9.38-11.883 17.014-26.489 17.016H27.75c-3.746 0-7.38-.63-10.801-1.87-3.305-1.2-6.273-2.917-8.82-5.103-2.55-2.187-4.55-4.733-5.948-7.568C.733 82.152 0 79.034 0 75.82V23.44c0-3.214.733-6.332 2.18-9.268C3.578 11.336 5.58 8.79 8.127 6.603c2.548-2.186 5.516-3.903 8.82-5.102C20.37.259 24.004-.37 27.75-.37h1128.5c3.746 0 7.38.63 10.802 1.87 3.304 1.2 6.272 2.916 8.82 5.103s4.55 4.733 5.947 7.568c1.447 2.935 2.18 6.053 2.18 9.268V75.82c0 3.215-.733 6.333-2.18 9.268-1.398 2.835-3.399 5.381-5.947 7.568-2.548 2.186-5.516 3.903-8.82 5.102-3.421 1.242-7.056 1.871-10.802 1.871Z" fill="#121821" fill-rule="evenodd" data-name="back-white-shadow"/></svg>