<svg xmlns="http://www.w3.org/2000/svg" width="61.898" height="64" viewBox="375.367 439.159 61.898 64"><g data-name="black-gazprom"><path d="M376.436 471.16c0-17.036 13.403-30.898 29.88-30.898 16.479 0 29.882 13.862 29.882 30.897 0 17.036-13.403 30.898-29.882 30.898-16.477 0-29.88-13.862-29.88-30.898Zm-1.07 0c0 17.645 13.884 32 30.95 32 17.064 0 30.949-14.355 30.949-32 0-17.644-13.885-32-30.95-32-17.065 0-30.948 14.356-30.948 32Z" fill="#fff" fill-rule="evenodd" data-name="Контур 145"/><path d="M426.007 467.904c-.232.202-.484.405-.761.624-1.71 1.357-4.408 2.445-8.156 3.481-7.77 2.156-13.41 2.476-19.83 4.102-1.243.314-2.55.749-3.762 1.262a42.109 42.109 0 0 0 3.822 1.718c2.598-.765 3.854-1.116 7.63-1.778 1.438-.25 5.86-1.055 9.073-1.756 5.768-1.272 14.234-4.036 11.984-7.653Zm-3.72-7.51c-1.226-.576-2.77-1.134-4.399-1.587-.728.604-1.584 1.133-2.796 1.62 2.033.372 3.568.96 5.279 1.472.31.16 1.696-1.19 1.917-1.506Zm-28.313 7.991c7.545-2.29 15.477-2.992 23.499-5.21-3.134-.875-4.85-1.24-8.168-.837-4.816.583-10.109 1.669-14.638 3.059-1.775.544-11.134 3.282-8.433 7.117 0 .048 1.607-2.275 7.74-4.129Zm-5.21 13.168c-.013.716.403 1.353 1.327 2.126.116-.385.28-.668.555-1.04a27.912 27.912 0 0 1-1.883-1.086Zm3.547-.364a13.635 13.635 0 0 1 2.03-1.016 74.611 74.611 0 0 1-3.292-1.495 7.902 7.902 0 0 0-1.315 1.028 62.35 62.35 0 0 0 2.577 1.483Zm29.023-16.584c-1.526.728-3.708 1.48-6.84 2.295-2.56.664-8.815 1.595-15.53 3.103-2.136.476-7.89 1.884-10.72 4.37.788.654 1.277.82 2.16 1.326 1.177-.773 2.755-1.505 5.125-2.163 4.125-1.14 7.196-1.628 10.905-2.23 3.683-.604 10.598-2.1 14.435-3.522 1.247-.466 2.41-1.06 3.276-1.754-.267-.31-2.732-1.541-2.81-1.425Zm2.23-1.411c.747.383 1.421.66 2.079 1.14.473-.931.184-1.537-.799-2.4-.382.466-.819.88-1.28 1.26Zm-35.158 14.096c-.67-.393-1.132-.668-1.696-1.07-.309.687.26 1.438.874 1.798.257-.263.553-.482.822-.728Zm32.134-21.553c-.136.53-.689 1.146-1.07 1.562 1.138.312 2.282.74 3.383 1.169-.135-1.04-1.314-2.052-2.313-2.73Zm-35.529 6.65c7.912-5.365 16.655-8.486 31.48-5.839.82-.492 1.273-.955 1.482-1.957-3.702-1.38-7.715-1.867-12.902-1.776-4.677.128-13.073 1.925-17.553 4.662l1.361-1.758c3.142-1.9 11.314-4.43 17.439-4.55 4.323-.086 6.567.16 11.695 1.59-.443-.908-1.517-1.361-3.066-2.08-4.972-2.31-14.257-2.524-21.867.932.964-.645 1.907-1.251 3.138-1.835 2.507-1.185 6.61-2.333 11.742-2.246 4.104.072 8.97 1.547 11.955 4.61.497.604.782 1.248.908 1.759 2.365 1.236 3.732 2.39 4.508 3.762.31.693.446 1.464.306 2.32.98.613 1.445 1.118 1.927 1.784.358.566.615 1.195.683 1.78.091.766.174 1.626-.6 2.625.82.41 1.444 1.564 1.547 2.081.37 1.839-.773 3.628-2.287 5.026-1.732 1.576-5.564 3.442-8.683 4.265-6.202 1.614-11.674 2.3-16.028 3.128 1.94.477 4.598 1.131 8.94 1.131 9.24 0 17.423-4.523 17.423-4.523s-.19.597-.368 1.106c-5.868 3.68-15.225 5.231-19.205 5.043-4.064-.195-7.463-.813-10.799-1.874-1.026.283-2.031.616-3.001 1.061 5.08 2.387 8.91 2.923 13.256 3.251 4.426.333 11.757-.769 17.945-3.086-.279.288-.426.755-.713 1.028-3.167 1.711-9.873 3.444-13.234 3.59-3.348.142-7.436.014-10.987-.688-3.067-.608-5.552-1.613-8.162-2.792-.478.354-.713.834-.796 1.349 10.187 5.502 19.73 5.621 30.581 2.136l-.993.985c-11.953 5.007-21.298 3.07-28.53-.54-.225-.11-.522-.228-.727-.366.662 1.21 6.193 5.378 12.365 5.899 4.254.362 9.452-.391 12.532-1.67l-1.802.977c-1.495.761-5.446 2.48-10.983 2.101-7.371-.517-11.517-3.884-13.376-5.648-.865-.821-1.272-1.783-1.535-2.954-1.667-.904-2.713-1.835-3.578-3.23-.51-.826-.412-1.749-.283-2.524.045-.242.103-.47.194-.695-.8-.596-1.61-1.24-1.955-1.882-.726-1.36-.28-2.53.224-3.432-.439-.513-.84-1.024-1.026-1.553-.19-.627-.228-1.214-.174-1.874.139-1.146.732-2.195 1.487-3.097 1.614-1.919 4.14-3.41 8.483-4.897 4.242-1.455 5.953-1.676 9.154-2.441 3.738-.894 8.204-1.181 11.952-2.532-10.43-1.897-21.26-.178-30.095 6.114l.601-1.756Z" fill="#fff" fill-rule="evenodd" data-name="Контур 146"/></g></svg>