<svg xmlns="http://www.w3.org/2000/svg" width="30.922" height="30.998" viewBox="10.539 12.5 30.922 30.998"><g data-name="ico-chat"><path d="M22.608 12.5c3.225 0 6.256 1.256 8.536 3.538a12.005 12.005 0 0 1 3.535 8.541c0 3.227-1.256 6.26-3.535 8.542a11.987 11.987 0 0 1-8.536 3.538c-1.643 0-3.236-.325-4.736-.966-.263 0-.79.115-1.3.227-.858.187-1.83.4-2.8.4-.914 0-1.66-.19-2.278-.583a1.517 1.517 0 0 1-.677-.968c-.186-.862.349-1.676.967-2.619.19-.29.517-.786.646-1.076a12.027 12.027 0 0 1-1.891-6.495c0-3.226 1.255-6.26 3.535-8.541a11.986 11.986 0 0 1 8.534-3.538Zm0 21.84c5.378 0 9.753-4.38 9.753-9.761 0-5.381-4.375-9.76-9.753-9.76-5.377 0-9.751 4.379-9.751 9.76 0 1.954.574 3.838 1.66 5.45.372.552.373 1.24.003 2.044-.206.45-.507.908-.798 1.351-.102.156-.236.36-.355.553.124.015.26.023.406.023.719 0 1.561-.184 2.305-.347.687-.15 1.281-.28 1.795-.28.324 0 .6.052.845.159a9.674 9.674 0 0 0 3.89.807Z" fill="#bbb" fill-rule="evenodd" data-name="Контур 46"/><path d="M30.455 43.498a10.964 10.964 0 0 1-8.543-4.072 1.16 1.16 0 0 1 1.798-1.463 8.656 8.656 0 0 0 6.745 3.215 8.61 8.61 0 0 0 3.465-.72c.663-.288 1.453-.115 2.454.104.691.15 1.563.341 2.23.308l-.223-.343c-.265-.403-.54-.82-.73-1.234-.35-.764-.347-1.422.013-1.955a8.65 8.65 0 0 0 1.479-4.855 8.728 8.728 0 0 0-2.771-6.367 1.16 1.16 0 0 1 1.579-1.698 10.974 10.974 0 0 1 2.564 3.592c.628 1.412.946 2.917.946 4.473 0 2.091-.584 4.113-1.692 5.87.125.256.391.66.549.9.549.836 1.067 1.625.89 2.45-.085.393-.32.729-.662.945-1.407.892-3.291.48-4.667.18-.388-.085-.908-.198-1.126-.203a10.91 10.91 0 0 1-4.298.873Z" fill="#bbb" fill-rule="evenodd" data-name="Контур 47"/><g data-name="Сгруппировать 162"><path d="M16.07 24.48a1.619 1.62 0 1 1 0 .1z" fill="#bbb" fill-rule="evenodd" data-name="Эллипс 34"/><path d="M21.08 24.48a1.619 1.62 0 1 1 0 .1z" fill="#bbb" fill-rule="evenodd" data-name="Эллипс 35"/><path d="M25.91 24.48a1.619 1.62 0 1 1 0 .1z" fill="#bbb" fill-rule="evenodd" data-name="Эллипс 36"/></g></g></svg>