<svg xmlns="http://www.w3.org/2000/svg" width="27.814" height="37.05" viewBox="0 -0.05 27.814 37.05"><g data-name="ico-pos"><path d="M7.786 11.38h9.11a2.562 2.562 0 0 1 2.558 2.558v4.125a2.562 2.562 0 0 1-2.559 2.559h-9.11a2.562 2.562 0 0 1-2.558-2.559v-4.125a2.562 2.562 0 0 1 2.559-2.559Zm9.11 7.416a.733.733 0 0 0 .732-.733v-4.125a.733.733 0 0 0-.733-.732h-9.11a.733.733 0 0 0-.732.732v4.125c0 .404.329.733.733.733h9.11Z" fill="#fff" fill-rule="evenodd" data-name="Прямоугольник 84"/><g data-name="Сгруппировать 213"><path d="M0 .868a.968.968 0 1 1 0 .1z" fill="#fff" fill-rule="evenodd" data-name="Эллипс 57"/><path d="M4.017.868a.968.968 0 1 1 0 .1z" fill="#fff" fill-rule="evenodd" data-name="Эллипс 58"/><path d="M8.035.868a.968.968 0 1 1 0 .1z" fill="#fff" fill-rule="evenodd" data-name="Эллипс 59"/></g><g data-name="Сгруппировать 214"><path d="M0 .868a.968.968 0 1 1 0 .1z" fill="#fff" fill-rule="evenodd" data-name="Эллипс 60"/><path d="M4.017.868a.968.968 0 1 1 0 .1z" fill="#fff" fill-rule="evenodd" data-name="Эллипс 61"/><path d="M8.035.868a.968.968 0 1 1 0 .1z" fill="#fff" fill-rule="evenodd" data-name="Эллипс 62"/></g><g data-name="Сгруппировать 215"><path d="M0 .868a.968.968 0 1 1 0 .1z" fill="#fff" fill-rule="evenodd" data-name="Эллипс 63"/><path d="M4.017.868a.968.968 0 1 1 0 .1z" fill="#fff" fill-rule="evenodd" data-name="Эллипс 64"/><path d="M8.035.868a.968.968 0 1 1 0 .1z" fill="#fff" fill-rule="evenodd" data-name="Эллипс 65"/></g><path d="M15.475 4.735H9.234a.457.457 0 0 1 0-.913h6.24a.457.457 0 0 1 0 .913Z" fill="#fff" fill-rule="evenodd" data-name="Линия 94"/><path d="M15.475 6.975H9.234a.457.457 0 0 1 0-.913h6.24a.457.457 0 0 1 0 .913Z" fill="#fff" fill-rule="evenodd" data-name="Линия 95"/><path d="M6.822 1H17.86c.504 0 .913.409.913.913v6.814a.913.913 0 0 1-.913.913H6.822a.913.913 0 0 1-.914-.913V1.913c0-.504.41-.913.914-.913Zm10.124 1.826H7.735v4.988h9.211V2.826Z" fill="#fff" fill-rule="evenodd" data-name="Прямоугольник 85"/><path d="M5.287 8h14.107a3.791 3.791 0 0 1 3.787 3.787v21.426A3.791 3.791 0 0 1 19.394 37H5.287A3.791 3.791 0 0 1 1.5 33.213V11.787A3.791 3.791 0 0 1 5.287 8Zm14.107 26.26c.578 0 1.048-.47 1.048-1.047V11.787c0-.578-.47-1.047-1.048-1.047H5.287c-.578 0-1.048.47-1.048 1.047v21.426c0 .578.47 1.048 1.048 1.048h14.107Z" fill="#fff" fill-rule="evenodd" data-name="Прямоугольник 86"/><path d="M23.36 12.118h1.535c1.61 0 2.92 1.31 2.92 2.92v16.01c0 1.61-1.31 2.919-2.92 2.919h-1.534a2.922 2.922 0 0 1-2.92-2.92v-16.01c0-1.61 1.31-2.919 2.92-2.919Zm1.535 19.11a.18.18 0 0 0 .18-.18v-16.01a.18.18 0 0 0-.18-.18h-1.534a.18.18 0 0 0-.18.18v16.01c0 .099.08.18.18.18h1.534Z" fill="#fff" fill-rule="evenodd" data-name="Прямоугольник 87"/></g></svg>