<svg xmlns="http://www.w3.org/2000/svg" width="28" height="28" viewBox="981 607 28 28"><g data-name="ico-zp"><path d="M1006.743 616.785h-5.523c.002-.026.008-.05.008-.076v-3.322a2.32 2.32 0 0 0-.651-1.616l-3.9-4.055a2.353 2.353 0 0 0-1.686-.716h-10.933a3.058 3.058 0 0 0-3.058 3.052v21.896a3.059 3.059 0 0 0 3.058 3.052h14.112a3.059 3.059 0 0 0 3.058-3.052v-1.373h5.515a2.257 2.257 0 0 0 2.257-2.253v-9.284a2.257 2.257 0 0 0-2.257-2.253Zm-.913 11.68c0-.581.473-1.055 1.057-1.055.265 0 .505.102.69.263v.649c0 .459-.374.832-.834.832h-.65a1.044 1.044 0 0 1-.263-.69Zm1.057-1.746a1.75 1.75 0 0 0-1.75 1.745c0 .246.052.479.144.69h-17.658a1.73 1.73 0 0 0 .143-.69 1.75 1.75 0 0 0-2.44-1.601v-6.366a1.75 1.75 0 0 0 2.44-1.602c0-.246-.052-.479-.143-.69h17.658a1.728 1.728 0 0 0-.144.69 1.75 1.75 0 0 0 2.44 1.602v6.366a1.737 1.737 0 0 0-.69-.144Zm-19.813-7.825c0 .582-.474 1.055-1.057 1.055-.265 0-.505-.101-.69-.263v-.648c0-.46.374-.833.833-.833h.65c.162.185.264.424.264.69Zm-.264 10.26h-.65a.834.834 0 0 1-.834-.832v-.649c.186-.161.426-.263.691-.263.583 0 1.057.474 1.057 1.054 0 .266-.102.505-.264.69Zm19.933-10.95c.46 0 .834.374.834.834v.648a1.047 1.047 0 0 1-.69.263 1.057 1.057 0 0 1-1.057-1.055c0-.265.101-.504.263-.69h.65Zm-8.072-5.34h-1.847c-.726 0-1.318-.575-1.318-1.283v-2.005l3.165 3.289Zm.423 19.084a.924.924 0 0 1-.924.922h-14.112a.924.924 0 0 1-.924-.922v-21.896c0-.508.415-.922.924-.922h9.314v2.451c0 1.882 1.549 3.414 3.452 3.414h2.27v1.714c0 .026.005.05.008.076H986.16a2.257 2.257 0 0 0-2.256 2.253v9.284a2.257 2.257 0 0 0 2.256 2.253h12.934v1.373Z" fill="#fff" fill-rule="evenodd" data-name="Контур 407"/><path d="M1003.226 621.927c-.969 0-1.757.786-1.757 1.753a1.757 1.757 0 0 0 3.513 0c0-.967-.788-1.753-1.756-1.753Zm0 2.815a1.064 1.064 0 0 1-1.065-1.062 1.064 1.064 0 0 1 2.13 0c0 .585-.479 1.062-1.065 1.062Z" fill="#fff" fill-rule="evenodd" data-name="Контур 408"/><path d="M989.603 621.927c-.969 0-1.756.786-1.756 1.753a1.756 1.756 0 0 0 3.512 0c0-.967-.788-1.753-1.756-1.753Zm0 2.815a1.064 1.064 0 0 1-1.064-1.062 1.064 1.064 0 0 1 2.128 0c0 .585-.478 1.062-1.064 1.062Z" fill="#fff" fill-rule="evenodd" data-name="Контур 409"/><path d="M997.26 619.287h-3.333v4.142h-.88v1.757h.88v.515h-.88v1.23h.88v1.141h2.013v-1.141h2.64v-1.23h-2.64v-.515h1.32c1.736 0 3.08-1.217 3.08-2.887s-1.344-3.012-3.08-3.012Zm0 4.142h-1.32v-2.26h1.32c.616 0 1.069.49 1.069 1.13 0 .64-.453 1.13-1.07 1.13Z" fill="#fff" fill-rule="evenodd" data-name="Контур 410"/></g></svg>