<svg xmlns="http://www.w3.org/2000/svg" width="32.631" height="32.143" viewBox="11.685 26.928 32.631 32.143"><g data-name="ico-notife"><path d="M29.437 55.192c-.81 0-1.334-.006-1.438-.008-.098.001-.573.007-1.31.007-1.773 0-5.198-.034-8.202-.261-1.693-.129-3.053-.304-4.041-.522-1.207-.265-2.474-.691-2.721-1.837-.076-.351-.081-.89.324-1.46.184-.26.411-.468.63-.67.231-.213.45-.414.605-.654 2.26-3.489 2.388-6.422 2.511-9.259.111-2.536.225-5.159 1.841-7.925.73-1.25 2.06-2.59 3.559-3.584 2.06-1.368 4.414-2.09 6.808-2.09s4.748.725 6.807 2.098c1.494.995 2.822 2.337 3.553 3.588 1.616 2.767 1.73 5.39 1.841 7.926.124 2.837.252 5.77 2.512 9.259.155.24.373.44.604.653.22.202.446.411.63.671.406.57.401 1.109.325 1.46-.248 1.146-1.565 1.579-2.684 1.828-.972.216-2.31.39-3.977.518-2.978.228-6.401.262-8.177.262ZM28 52.72h.018c.006 0 .552.009 1.418.009 1.544 0 4.54-.027 7.274-.205 2.523-.164 3.882-.395 4.602-.576a4.923 4.923 0 0 1-.671-.811c-2.623-4.05-2.773-7.47-2.904-10.489-.107-2.442-.199-4.551-1.508-6.793-.425-.728-1.382-1.841-2.791-2.78-1.152-.768-3.03-1.683-5.435-1.683-2.408 0-4.287.912-5.44 1.677-1.412.938-2.368 2.048-2.792 2.774-1.31 2.241-1.401 4.35-1.508 6.792-.131 3.018-.28 6.438-2.904 10.488a4.92 4.92 0 0 1-.671.813c.729.184 2.114.42 4.703.587 2.759.178 5.757.205 7.298.205.794 0 1.288-.007 1.293-.007H28Z" fill="#bbb" fill-rule="evenodd" data-name="Контур 48"/><path d="M28 59.071c-2.878 0-5.253-2.187-5.409-4.979l2.466-.137c.083 1.488 1.376 2.653 2.943 2.653 1.515 0 2.805-1.123 2.936-2.557l2.46.224a5.199 5.199 0 0 1-1.744 3.42A5.49 5.49 0 0 1 28 59.07Z" fill="#bbb" fill-rule="evenodd" data-name="Контур 49"/></g></svg>