<svg xmlns="http://www.w3.org/2000/svg" width="37.965" height="39.294"><path d="M5.184 0h27.598c2.025 0 3.82 1.015 4.684 2.649.748 1.412.65 3.053-.259 4.39l-12.63 18.577v6.466c0 1.9-1.06 3.662-2.836 4.716l-3.85 2.283c-.236.14-.505.213-.78.213-2.052 0-3.723-1.522-3.723-3.393V25.616L.758 7.038c-.91-1.336-1.006-2.977-.26-4.39C1.364 1.016 3.159 0 5.185 0Zm11.6 36.184 3.398-2.015c.838-.497 1.338-1.277 1.338-2.087v-6.937c0-.306.093-.606.265-.859L34.68 5.32c.277-.407.306-.825.085-1.242-.25-.471-.919-1.022-1.983-1.022H5.184c-1.065 0-1.734.55-1.984 1.022-.22.417-.192.835.085 1.242L16.18 24.286c.173.253.265.553.265.86V35.9c0 .072.123.208.338.283Z" fill="#fff" fill-rule="evenodd" data-name="ico-filter"/></svg>