<svg xmlns="http://www.w3.org/2000/svg" width="28" height="23.984" viewBox="406 298.008 28 23.984"><path d="M430.557 300.291c.288 0 .57.088.807.251.172.15.282.359.308.585.043.282.055.566.036.85-.324 3.411-1.73 11.69-2.444 15.51-.303 1.616-.898 2.159-1.475 2.213-.071.006-.14.009-.21.009-1.15 0-2.062-.882-3.208-1.633-1.9-1.244-2.972-2.02-4.816-3.234-2.13-1.403-.75-2.175.465-3.437.318-.33 5.837-5.35 5.944-5.806a.443.443 0 0 0-.1-.381.496.496 0 0 0-.447-.043c-.19.044-3.223 2.048-9.099 6.015a4.1 4.1 0 0 1-2.343.864 15.424 15.424 0 0 1-3.353-.794c-1.35-.438-2.424-.671-2.33-1.417.05-.39.587-.786 1.608-1.193 6.289-2.74 10.483-4.546 12.58-5.42 5.988-2.492 7.236-2.924 8.049-2.939h.028m0-2.283h-.075c-1.255.023-2.5.46-8.879 3.114-2.094.873-6.328 2.696-12.581 5.42-.784.313-2.746 1.119-2.994 3.003-.322 2.561 2.22 3.36 3.442 3.745l.416.131c1.233.44 2.516.743 3.815.9l.187.022.187-.008a6.348 6.348 0 0 0 2.116-.458c.218 1.626 1.634 2.56 2.108 2.871.874.576 1.572 1.052 2.27 1.527.76.517 1.546 1.052 2.55 1.71.229.15.446.306.658.457.969.69 2.176 1.55 3.802 1.55.138 0 .278-.006.42-.019 1.045-.097 2.89-.754 3.51-4.067.693-3.713 2.132-12.133 2.472-15.713l.003-.029.001-.03c.03-.44.013-.885-.052-1.32a3.185 3.185 0 0 0-1.07-1.994l-.096-.084-.105-.072a3.688 3.688 0 0 0-2.105-.656Z" fill="#fff" fill-rule="evenodd" data-name="ico-telegram"/></svg>