<svg xmlns="http://www.w3.org/2000/svg" width="39.557" height="39.557" viewBox="123 149 39.557 39.557"><g data-name="ico-online"><g data-name="Сгруппировать 212"><path d="M160.98 170.571h-35.673a1.5 1.5 0 0 1 0-3h35.672a1.5 1.5 0 0 1 0 3Z" fill="#fff" fill-rule="evenodd" data-name="Линия 92"/><path d="M143.143 187.967a1.5 1.5 0 0 1-1.5-1.5v-34.792a1.5 1.5 0 1 1 3 0v34.792a1.5 1.5 0 0 1-1.5 1.5Z" fill="#fff" fill-rule="evenodd" data-name="Линия 93"/></g><path d="M142.778 149a19.71 19.71 0 0 1 13.985 5.793 19.71 19.71 0 0 1 5.794 13.985 19.71 19.71 0 0 1-5.793 13.985 19.71 19.71 0 0 1-13.986 5.794 19.71 19.71 0 0 1-13.985-5.793A19.71 19.71 0 0 1 123 168.778a19.71 19.71 0 0 1 5.793-13.985A19.71 19.71 0 0 1 142.778 149Zm0 36.557c9.252 0 16.779-7.527 16.779-16.779 0-9.251-7.527-16.778-16.779-16.778-9.251 0-16.778 7.527-16.778 16.778 0 9.252 7.527 16.779 16.778 16.779Z" fill="#fff" fill-rule="evenodd" data-name="Эллипс 56"/><path d="m143.895 186.68-1.502-2.597c5.159-2.982 8.363-8.847 8.363-15.305 0-6.459-3.204-12.323-8.363-15.304l1.502-2.598c2.936 1.698 5.407 4.235 7.145 7.337 1.777 3.173 2.716 6.826 2.716 10.565 0 3.74-.94 7.393-2.716 10.565-1.738 3.102-4.208 5.64-7.145 7.338Z" fill="#fff" fill-rule="evenodd" data-name="Контур 71"/><path d="M142.393 186.68c-2.937-1.697-5.407-4.235-7.145-7.337-1.777-3.172-2.716-6.825-2.716-10.565 0-3.74.94-7.392 2.716-10.565 1.738-3.102 4.209-5.64 7.145-7.337l1.502 2.598c-5.159 2.981-8.363 8.845-8.363 15.304 0 6.458 3.204 12.323 8.363 15.305l-1.502 2.598Z" fill="#fff" fill-rule="evenodd" data-name="Контур 72"/><path d="m130.485 183.944-2.198-2.042a19.7 19.7 0 0 1 6.452-4.616 19.633 19.633 0 0 1 8.039-1.702c2.797 0 5.5.572 8.036 1.7a19.7 19.7 0 0 1 6.452 4.614l-2.198 2.042a16.833 16.833 0 0 0-12.29-5.356 16.832 16.832 0 0 0-12.293 5.36Z" fill="#fff" fill-rule="evenodd" data-name="Контур 73"/><path d="M142.778 162.435c-2.798 0-5.502-.573-8.039-1.702a19.7 19.7 0 0 1-6.452-4.616l2.198-2.042a16.832 16.832 0 0 0 12.293 5.36c4.646 0 9.125-1.952 12.29-5.356l2.197 2.042a19.707 19.707 0 0 1-6.45 4.613 19.633 19.633 0 0 1-8.037 1.701Z" fill="#fff" fill-rule="evenodd" data-name="Контур 74"/></g></svg>