<svg xmlns="http://www.w3.org/2000/svg" width="64" height="64" viewBox="136 1553.38 64 64"><g data-name="raif"><path d="M200 1605.284c0 7.776-4.32 12.096-12.096 12.096h-39.808c-7.776 0-12.096-4.32-12.096-12.096v-39.808c0-7.776 4.32-12.096 12.096-12.096h39.824c7.76 0 12.08 4.32 12.08 12.096v39.808Z" fill="#ffe600" fill-rule="evenodd" data-name="Контур 142"/><path d="M177.152 1582.26v-6.112l2.208-2.208v5.296l1.92 1.92 7.728-7.728 1.904 1.904c-.016-1.44-.304-5.616-3.84-9.088-3.808-3.68-7.936-2.016-9.344-.608l-7.712 7.712 1.968 1.968-3.984 4.016-3.984-3.984 1.968-1.968-7.712-7.712c-1.408-1.408-5.536-3.072-9.344.608-3.536 3.472-3.824 7.648-3.84 9.088l1.904-1.904 7.728 7.728 1.92-1.92v-5.296l2.208 2.208v6.112l3.104 3.088-15.296 15.296 6.048 6.032 15.296-15.28 15.296 15.296 6.048-6.032-15.296-15.312 3.104-3.12Z" fill="#2b2d34" fill-rule="evenodd" data-name="Контур 143"/></g></svg>