<svg xmlns="http://www.w3.org/2000/svg" width="40.098" height="40.024"><g data-name="SB_RUS_RGB"><g data-name="Group"><path d="M35.91 7.803c.948 1.222 1.738 2.561 2.41 3.98L20.069 25.222l-7.664-4.808V14.66l7.624 4.769L35.91 7.803Z" fill="#21a038" fill-rule="evenodd" data-name="Path"/><g data-name="Path"><path d="M4.669 8.496c0-.275 0-.512.04-.788L.085 7.472c0 .315-.04.67-.04.985 0 5.517 2.252 10.522 5.887 14.148l3.279-3.271A15.129 15.129 0 0 1 4.669 8.496Z" fill-rule="evenodd" fill="url(&quot;#a&quot;)" transform="translate(-.047 11.547)" data-name="Контур 84"/><path d="M16.508 4.61c.276 0 .513 0 .79.04l.237-4.61c-.316 0-.672-.04-.988-.04A20.03 20.03 0 0 0 2.365 5.872l3.279 3.27a15.271 15.271 0 0 1 10.864-4.531Z" fill-rule="evenodd" fill="url(&quot;#b&quot;)" transform="translate(3.521 .063)" data-name="Контур 85"/><path d="M8.558 16.68c-.277 0-.514 0-.79-.04l-.237 4.61c.316 0 .671.04.987.04 5.53 0 10.548-2.246 14.182-5.872l-3.279-3.27c-2.765 2.837-6.597 4.532-10.863 4.532Z" fill-rule="evenodd" fill="url(&quot;#c&quot;)" transform="translate(11.471 18.733)" data-name="Контур 86"/></g><g data-name="Path"><path d="m16.626 7.47 3.911-2.877C17.1 1.834 12.715.14 7.935.14v4.61c3.24.04 6.242 1.025 8.691 2.72Z" fill-rule="evenodd" fill="url(&quot;#d&quot;)" transform="translate(12.094 -.14)" data-name="Контур 87"/><path d="M40.098 20.02c0-1.222-.119-2.404-.316-3.587l-4.306 3.193v.394c0 4.532-1.976 8.59-5.096 11.389l3.12 3.428a19.941 19.941 0 0 0 6.598-14.817Z" fill="#21a038" fill-rule="evenodd" data-name="Контур 88"/><path d="M16.939 17.17c-4.543 0-8.612-1.971-11.417-5.085L2.085 15.2a19.955 19.955 0 0 0 14.854 6.581v-4.61Z" fill-rule="evenodd" fill="url(&quot;#e&quot;)" transform="translate(3.09 18.22)" data-name="Контур 89"/><path d="M9.765 5.619 6.645 2.19C2.574 5.855.046 11.136.046 17.008h4.622c0-4.493 1.975-8.591 5.096-11.39Z" fill-rule="evenodd" fill="url(&quot;#f&quot;)" transform="translate(-.047 3.012)" data-name="Контур 90"/></g></g></g><defs><linearGradient x1=".59" y1=".963" x2=".388" y2="-.001" id="a"><stop stop-color="#f2e913" offset=".144"/><stop stop-color="#e7e518" offset=".304"/><stop stop-color="#cadb26" offset=".582"/><stop stop-color="#a3cd39" offset=".891"/></linearGradient><linearGradient x1=".087" y1=".584" x2=".946" y2=".387" id="b"><stop stop-color="#0fa8e0" offset=".059"/><stop stop-color="#0099f9" offset=".539"/><stop stop-color="#0291eb" offset=".923"/></linearGradient><linearGradient x1="-.018" y1=".57" x2=".954" y2=".438" id="c"><stop stop-color="#a3cd39" offset=".123"/><stop stop-color="#86c339" offset=".285"/><stop stop-color="#21a038" offset=".869"/></linearGradient><linearGradient x1="-.075" y1=".402" x2=".925" y2=".582" id="d"><stop stop-color="#0291eb" offset=".057"/><stop stop-color="#0c8acb" offset=".79"/></linearGradient><linearGradient x1=".079" y1=".398" x2="1.003" y2=".623" id="e"><stop stop-color="#f2e913" offset=".132"/><stop stop-color="#ebe716" offset=".298"/><stop stop-color="#d9e01f" offset=".531"/><stop stop-color="#bbd62d" offset=".802"/><stop stop-color="#a3cd39" offset=".983"/></linearGradient><linearGradient x1=".362" y1="1.038" x2=".605" y2=".073" id="f"><stop stop-color="#a3cd39" offset=".07"/><stop stop-color="#81c55f" offset=".26"/><stop stop-color="#0fa8e0" offset=".922"/></linearGradient></defs></svg>