<svg xmlns="http://www.w3.org/2000/svg" width="40" height="40" viewBox="0 0 40 40">
  <g id="Сгруппировать_521" data-name="Сгруппировать 521" transform="translate(-150)" opacity="0.3">
    <g id="Многоугольник_1" data-name="Многоугольник 1" transform="translate(190) rotate(90)" fill="#777">
      <path d="M 28.67375946044922 39.5 L 11.32623958587646 39.5 C 9.057009696960449 39.5 6.990009784698486 38.34756851196289 5.796999931335449 36.41725158691406 C 4.604000091552734 34.48693084716797 4.49763011932373 32.12276077270508 5.512460231781006 30.09311103820801 L 14.18622016906738 12.74559020996094 C 14.75543975830078 11.60715007781982 15.61608982086182 10.67520999908447 16.67513084411621 10.05051040649414 C 17.67111968994141 9.463009834289551 18.82084083557129 9.152480125427246 20 9.152480125427246 C 21.17915916442871 9.152480125427246 22.32888031005859 9.463009834289551 23.32486915588379 10.05051040649414 C 24.38390922546387 10.67520999908447 25.24456024169922 11.60715007781982 25.81377983093262 12.74559020996094 L 34.48754119873047 30.09311103820801 C 35.50236892700195 32.12276077270508 35.39599990844727 34.48693084716797 34.2029914855957 36.41725158691406 C 33.00999069213867 38.34756851196289 30.94298934936523 39.5 28.67375946044922 39.5 Z" stroke="none"/>
      <path d="M 20 9.652469635009766 C 18.91012001037598 9.652469635009766 17.84823989868164 9.939029693603516 16.92917060852051 10.48117065429688 C 15.95331001281738 11.05678939819336 15.15946006774902 11.91714096069336 14.6334400177002 12.96918869018555 L 5.959678649902344 30.31670951843262 C 5.022911071777344 32.19023895263672 5.121101379394531 34.37255096435547 6.222328186035156 36.15438079833984 C 7.323570251464844 37.93621826171875 9.231569290161133 39 11.32624053955078 39 L 28.67375946044922 39 C 30.76842880249023 39 32.67642974853516 37.93621826171875 33.77767181396484 36.15438079833984 C 34.87889862060547 34.37255096435547 34.97708892822266 32.19023895263672 34.04032135009766 30.31670951843262 L 25.3665599822998 12.96918869018555 C 24.84053039550781 11.91714096069336 24.04668045043945 11.05678939819336 23.07082939147949 10.48117065429688 C 22.1517505645752 9.939029693603516 21.08987998962402 9.652469635009766 20 9.652469635009766 M 20 8.652473449707031 C 22.48557662963867 8.652473449707031 24.97115516662598 9.942310333251953 26.26099014282227 12.52198028564453 L 34.93474960327148 29.8695011138916 C 37.26190948486328 34.52381134033203 33.8774299621582 40 28.67375946044922 40 L 11.32624053955078 40 C 6.122570037841797 40 2.738090515136719 34.52381134033203 5.065250396728516 29.8695011138916 L 13.73900985717773 12.52198028564453 C 15.02884483337402 9.942310333251953 17.51442337036133 8.652473449707031 20 8.652473449707031 Z" stroke="none" fill="#707070"/>
    </g>
  </g>
</svg>
