<svg xmlns="http://www.w3.org/2000/svg" width="1184" height="100.001" viewBox="0 -0.371 1184 100.001"><path d="M1156.25 99.63H539.375c-11.396-.003-20.667-7.636-20.667-17.016V39.222c0-9.383-9.275-17.016-20.674-17.016H415.34c-11.4 0-20.674 7.633-20.674 17.016V82.614c0 9.38-9.271 17.013-20.667 17.016H27.75c-3.746 0-7.38-.63-10.802-1.871-3.304-1.2-6.271-2.916-8.82-5.103-2.549-2.187-4.55-4.733-5.947-7.569C.734 82.152 0 79.034 0 75.82V23.44c0-3.215.734-6.333 2.18-9.268 1.399-2.835 3.4-5.381 5.948-7.568 2.548-2.187 5.516-3.904 8.82-5.103C20.37.26 24.004-.37 27.75-.37h1128.5c3.746 0 7.38.63 10.802 1.871 3.304 1.2 6.272 2.916 8.82 5.103 2.55 2.187 4.55 4.733 5.948 7.568 1.447 2.935 2.18 6.053 2.18 9.268v52.38c0 3.215-.733 6.333-2.18 9.268-1.398 2.836-3.399 5.382-5.947 7.569-2.55 2.187-5.517 3.904-8.821 5.103-3.422 1.241-7.056 1.87-10.802 1.87Z" fill="#121821" fill-rule="evenodd" data-name="back-white-shadow"/></svg>