<svg xmlns="http://www.w3.org/2000/svg" width="1184.001" height="100"><g data-name="back"><path d="M1156.25 100H846.662c-13.135-.002-23.82-7.635-23.82-17.016V39.592c0-2.297-.63-4.525-1.873-6.623-1.2-2.027-2.919-3.846-5.106-5.408-4.501-3.215-10.485-4.985-16.85-4.985h-95.308c-6.364 0-12.347 1.77-16.848 4.985-2.188 1.563-3.906 3.383-5.105 5.408-1.243 2.098-1.873 4.326-1.873 6.623V82.984c0 9.381-10.686 17.014-23.822 17.016H27.751c-3.746 0-7.38-.63-10.802-1.871-3.304-1.2-6.273-2.916-8.821-5.103-2.549-2.187-4.55-4.733-5.947-7.568C.734 82.523 0 79.405 0 76.191v-52.38c0-3.215.734-6.333 2.18-9.269 1.398-2.835 3.4-5.381 5.948-7.568 2.548-2.187 5.517-3.903 8.82-5.103C20.372.63 24.006 0 27.752 0h1128.5c3.746 0 7.38.63 10.801 1.871 3.304 1.199 6.272 2.916 8.822 5.103 2.548 2.187 4.549 4.733 5.946 7.568 1.448 2.936 2.181 6.054 2.181 9.268v52.381c0 3.214-.733 6.332-2.18 9.267-1.398 2.835-3.399 5.381-5.947 7.568-2.55 2.187-5.518 3.904-8.822 5.103-3.421 1.241-7.055 1.87-10.802 1.87Z" fill="#121821" fill-rule="evenodd" data-name="back-white-shadow"/></g></svg>