<svg xmlns="http://www.w3.org/2000/svg" width="64" height="64" viewBox="367 2006.31 64 64"><g data-name="black-sovcom"><path d="M367 2038.353c0 17.637 14.32 31.956 32.044 31.956h1.31v-12.136h-1.31c-11.002 0-19.82-8.906-19.82-19.82s8.906-19.82 19.82-19.82h1.31v-12.224h-1.31c-17.725 0-32.044 14.32-32.044 32.044" fill="#fff" fill-rule="evenodd" data-name="Контур 390"/><path d="M405.417 2006.92v16.677h-6.373a14.682 14.682 0 0 0-14.756 14.756c0 8.12 6.636 14.756 14.756 14.756h6.373v16.676C420 2066.817 431 2053.895 431 2038.44c0-15.629-11.001-28.55-25.583-31.52" fill="#fff" fill-rule="evenodd" data-name="Контур 391"/></g></svg>