<svg xmlns="http://www.w3.org/2000/svg" width="64" height="63.947"><path d="M11.97.107a13.717 13.717 0 0 0-7.674 3.74C2.183 5.898.912 8.193.236 11.22l-.193.87-.036 19.298C-.012 45.335.007 50.94.08 51.6c.366 3.165 1.738 6.009 4.015 8.286 2.021 2.013 4.235 3.21 7.143 3.851l.96.21h39.604l.96-.21c2.88-.64 5.122-1.838 7.143-3.86 1.994-1.984 3.183-4.18 3.85-7.088l.202-.915.036-19.298c.019-13.948 0-19.555-.073-20.213C63.243 6.39 58.89 1.598 52.945.253L51.893.025 32.366.006c-15.933-.018-19.683 0-20.396.1ZM32 14.96v3.659l-.476.045c-.265.028-.768.074-1.125.11-.347.028-1.097.174-1.664.311-5.076 1.28-8.918 5.442-9.869 10.701-.192 1.061-.192 3.275 0 4.363.595 3.348 2.341 6.283 4.948 8.296.97.75 1.464 1.051 2.607 1.6 3.457 1.647 7.7 1.647 11.158 0 1.143-.549 1.637-.85 2.607-1.6a13.333 13.333 0 0 0 4.939-8.314c.073-.448.137-.997.137-1.198 0-.21.027-.513.055-.668l.055-.284h7.326l-.064.979c-.137 2.168-.576 4.308-1.253 6.128-2.35 6.357-7.674 11.186-14.213 12.878-1.875.485-3.037.622-5.168.622-2.131 0-3.293-.137-5.168-.622-7.234-1.875-12.978-7.619-14.816-14.808-.494-1.93-.632-3.055-.632-5.177 0-2.13.129-3.22.64-5.204 1.665-6.494 6.54-11.862 12.933-14.213 1.93-.713 4.436-1.189 6.522-1.244l.521-.009v3.65Z" fill="#fff" fill-rule="evenodd" data-name="blan"/></svg>