<svg xmlns="http://www.w3.org/2000/svg" width="21.546" height="21.185" viewBox="3.238 4.181 21.546 21.185"><g data-name="Сгруппировать 211"><path d="M3.238 14.773c0-.183.047-.367.141-.531l5.463-9.525a1.068 1.068 0 0 1 1.852 1.063l-5.158 8.993 5.158 8.993a1.068 1.068 0 0 1-1.852 1.063L3.38 15.304a1.067 1.067 0 0 1-.141-.531Z" fill="#888" fill-rule="evenodd" data-name="Контур 70"/><path d="M3.238 14.773c0-.59.478-1.068 1.068-1.068h19.41a1.068 1.068 0 0 1 0 2.136H4.306c-.59 0-1.068-.478-1.068-1.068Z" fill="#888" fill-rule="evenodd" data-name="Линия 91"/></g></svg>