<svg xmlns="http://www.w3.org/2000/svg" width="16.265" height="28" viewBox="549.876 296 16.265 28"><g data-name="ico-ok"><path d="M558.042 310.471c3.986 0 7.235-3.25 7.235-7.235 0-3.986-3.25-7.236-7.235-7.236-4.03 0-7.28 3.25-7.28 7.236 0 3.986 3.25 7.235 7.28 7.235Zm0-10.225a2.996 2.996 0 0 1 2.99 2.99 2.996 2.996 0 0 1-2.99 2.99 2.996 2.996 0 0 1-2.99-2.99c-.043-1.647 1.3-2.99 2.99-2.99Z" fill="#fff" fill-rule="evenodd" data-name="Контур 374"/><path d="M560.945 316.407c1.473-.347 2.903-.91 4.203-1.733.996-.607 1.3-1.95.65-2.946-.607-.997-1.95-1.3-2.947-.65-2.946 1.863-6.802 1.863-9.748 0-.997-.607-2.297-.347-2.947.65-.563.996-.26 2.296.737 2.903 1.3.823 2.73 1.386 4.203 1.733l-4.03 4.03a2.118 2.118 0 0 0 0 2.989c.434.433.954.606 1.517.606s1.083-.217 1.516-.606l3.986-3.987 3.986 3.987a2.118 2.118 0 0 0 2.99 0 2.118 2.118 0 0 0 0-2.99l-4.116-3.986Z" fill="#fff" fill-rule="evenodd" data-name="Контур 375"/></g></svg>