<svg xmlns="http://www.w3.org/2000/svg" width="31.963" height="26.803" viewBox="1.021 0.001 31.963 26.803"><g data-name="ico-bank-card"><g data-name="Сгруппировать 199"><g data-name="Сгруппировать 198"><path d="m3.504 9.181 16.793-7.997a2.754 2.754 0 0 1 3.666 1.3l5.465 11.475a2.754 2.754 0 0 1-1.301 3.666l-16.794 7.997a2.754 2.754 0 0 1-3.665-1.3L2.203 12.846a2.754 2.754 0 0 1 1.301-3.666Zm23.467 6.016a.061.061 0 0 0 .029-.082L21.535 3.641a.061.061 0 0 0-.081-.029L4.66 11.609a.061.061 0 0 0-.029.082l5.465 11.474c.014.03.05.044.081.029l16.794-7.997Z" fill="#fff" fill-rule="evenodd" data-name="Прямоугольник 80"/><path d="M5.934 17.554 4.06 13.616 23.39 4.41l1.875 3.938-19.332 9.206Z" fill="#fff" fill-rule="evenodd" data-name="Линия 66"/><path d="M11.486 21.34a2.18 2.18 0 0 1-.94-4.15l1.98-.943a2.18 2.18 0 1 1 1.875 3.938l-1.98.943a2.173 2.173 0 0 1-.935.212Z" fill="#fff" fill-rule="evenodd" data-name="Линия 67"/></g></g><g data-name="Сгруппировать 201"><g data-name="Сгруппировать 200"><path d="M21.054 19.5a1.345 1.345 0 0 1-.579-2.559l5.582-2.659c.008-.003.023-.01.032-.034.008-.024 0-.04-.003-.046L20.622 2.727c-.003-.006-.01-.023-.035-.031-.024-.009-.04-.001-.046.002L3.746 10.695c-.006.003-.023.011-.031.035-.008.023 0 .04.002.046l.54 1.135a1.345 1.345 0 0 1-2.428 1.156l-.54-1.134A2.73 2.73 0 0 1 1.18 9.83a2.734 2.734 0 0 1 1.41-1.563L19.383.27a2.732 2.732 0 0 1 2.102-.11 2.734 2.734 0 0 1 1.564 1.41l5.464 11.475c.316.662.355 1.41.11 2.102a2.731 2.731 0 0 1-1.41 1.564l-5.582 2.658a1.34 1.34 0 0 1-.578.131Z" fill="#fff" fill-rule="evenodd" data-name="Контур 54"/><path d="M17.354 10.85a2.18 2.18 0 0 1-.94-4.15l4.876-2.322a2.18 2.18 0 0 1 1.875 3.938l-4.875 2.322a2.173 2.173 0 0 1-.936.212Z" fill="#fff" fill-rule="evenodd" data-name="Линия 68"/></g></g><path d="m32.013 13.632.39.818a1.351 1.351 0 0 1-.64 1.801l-.818.39a1.351 1.351 0 0 1-1.8-.639l-.39-.818a1.351 1.351 0 0 1 .639-1.801l.818-.39a1.351 1.351 0 0 1 1.801.639z" fill="#fff" fill-rule="evenodd" data-name="Прямоугольник 81"/></g></svg>