<svg xmlns="http://www.w3.org/2000/svg" width="36.337" height="40" viewBox="28 26 36.337 40"><g data-name="ico-ref"><path d="M46.81 45.591c3.388 0 9.796-2.047 9.796-9.795 0-5.402-4.395-9.796-9.797-9.796-5.401 0-9.795 4.394-9.795 9.796 0 5.401 4.394 9.795 9.795 9.795Zm0-16.552a6.765 6.765 0 0 1 6.757 6.757c0 6.68-6.481 6.757-6.758 6.757a6.765 6.765 0 0 1-6.757-6.757 6.765 6.765 0 0 1 6.757-6.757Z" fill="#fff" fill-rule="evenodd" data-name="Контур 379"/><path d="M51.362 62.961H34.451a3.417 3.417 0 0 1-3.412-3.412v-.993c0-4.564 2.318-8.42 6.561-10.973 2.044 2.418 5.195 3.688 9.21 3.688 2.507 0 4.684-.471 6.467-1.398l.006-.002a9.466 9.466 0 0 0 2.676-2.055 14.882 14.882 0 0 1 2.76 2.283h.003a12.058 12.058 0 0 1 2.375 3.647 1.52 1.52 0 0 0 2.808-1.16 15.046 15.046 0 0 0-2.97-4.567v-.002c-1.275-1.356-2.83-2.542-4.623-3.528a1.519 1.519 0 0 0-2.006.505 6.332 6.332 0 0 1-2.426 2.181h-.001c-1.347.701-3.053 1.057-5.07 1.057-3.563 0-6.078-1.152-7.476-3.425a1.519 1.519 0 0 0-1.983-.558C31.32 47.32 28 52.401 28 58.556v.993A6.459 6.459 0 0 0 34.451 66h16.911a1.52 1.52 0 1 0 0-3.039Z" fill="#fff" fill-rule="evenodd" data-name="Контур 380"/><path d="M62.818 56.368h-5.02v-5.02a1.519 1.519 0 1 0-3.038 0v5.02h-5.021a1.52 1.52 0 0 0 0 3.04h5.02v5.02a1.519 1.519 0 1 0 3.04 0v-5.02h5.02a1.519 1.519 0 1 0 0-3.04Z" fill="#fff" fill-rule="evenodd" data-name="Контур 381"/></g></svg>