<svg xmlns="http://www.w3.org/2000/svg" width="39.831" height="36"><g data-name="ico-rko"><path d="M2.86 33.093a1.532 1.532 0 0 1-1.532-1.531V1.532a1.532 1.532 0 1 1 3.063 0v30.03c0 .845-.686 1.531-1.531 1.531Z" fill="#fff" fill-rule="evenodd" data-name="Линия 96"/><path d="M37.184 7.387H2.86a1.532 1.532 0 1 1 0-3.063h34.324a1.532 1.532 0 1 1 0 3.063Z" fill="#fff" fill-rule="evenodd" data-name="Линия 97"/><path d="M37.184 26.122H2.86a1.532 1.532 0 1 1 0-3.063h34.324a1.532 1.532 0 1 1 0 3.063Z" fill="#fff" fill-rule="evenodd" data-name="Линия 98"/><path d="M37.184 16.755H2.86a1.532 1.532 0 1 1 0-3.063h34.324a1.532 1.532 0 1 1 0 3.063Z" fill="#fff" fill-rule="evenodd" data-name="Линия 99"/><path d="M37.79 36H2.041a2.042 2.042 0 1 1 0-4.084h35.747a2.042 2.042 0 1 1 0 4.084Z" fill="#fff" fill-rule="evenodd" data-name="Линия 100"/><path d="M37.184 33.093a1.532 1.532 0 0 1-1.532-1.531V1.532a1.532 1.532 0 1 1 3.063 0v30.03c0 .845-.685 1.531-1.531 1.531Z" fill="#fff" fill-rule="evenodd" data-name="Линия 101"/><path d="M11.844 2.027h.21a2.868 2.868 0 0 1 2.868 2.868v1.922a2.868 2.868 0 0 1-2.867 2.868h-.21a2.868 2.868 0 0 1-2.869-2.868V4.895a2.868 2.868 0 0 1 2.868-2.868z" fill="#fff" fill-rule="evenodd" data-name="Прямоугольник 88"/><path d="M20.943 2.027h.21a2.868 2.868 0 0 1 2.869 2.868v1.922a2.868 2.868 0 0 1-2.868 2.868h-.21a2.868 2.868 0 0 1-2.868-2.868V4.895a2.868 2.868 0 0 1 2.867-2.868z" fill="#fff" fill-rule="evenodd" data-name="Прямоугольник 89"/><path d="M29.862 2.027h.21a2.868 2.868 0 0 1 2.868 2.868v1.922a2.868 2.868 0 0 1-2.867 2.868h-.21a2.868 2.868 0 0 1-2.868-2.868V4.895a2.868 2.868 0 0 1 2.867-2.868z" fill="#fff" fill-rule="evenodd" data-name="Прямоугольник 90"/><path d="M25.468 11.036h.211a2.868 2.868 0 0 1 2.868 2.868v1.922a2.868 2.868 0 0 1-2.868 2.868h-.21a2.868 2.868 0 0 1-2.868-2.868v-1.922a2.868 2.868 0 0 1 2.867-2.868z" fill="#fff" fill-rule="evenodd" data-name="Прямоугольник 91"/><path d="M14.117 20.762h.21a2.868 2.868 0 0 1 2.868 2.867v1.923a2.868 2.868 0 0 1-2.867 2.867h-.211a2.868 2.868 0 0 1-2.868-2.867v-1.923a2.868 2.868 0 0 1 2.868-2.867z" fill="#fff" fill-rule="evenodd" data-name="Прямоугольник 92"/><path d="M24.838 20.762h.21a2.868 2.868 0 0 1 2.868 2.867v1.923a2.868 2.868 0 0 1-2.868 2.867h-.21a2.868 2.868 0 0 1-2.868-2.867v-1.923a2.868 2.868 0 0 1 2.868-2.867z" fill="#fff" fill-rule="evenodd" data-name="Прямоугольник 93"/></g></svg>