<svg xmlns="http://www.w3.org/2000/svg" width="40" height="40" viewBox="743.586 1121 40 40"><g data-name="ico-copylink"><path d="M775.996 1121H759.4c-4.186 0-7.59 3.405-7.59 7.59v.633h-.633c-4.186 0-7.59 3.405-7.59 7.591v16.595c0 4.185 3.404 7.591 7.59 7.591h16.595c4.186 0 7.59-3.406 7.59-7.59v-.633h.634c4.186 0 7.59-3.406 7.59-7.591v-16.595c0-4.186-3.404-7.591-7.59-7.591Zm4.289 24.186a4.294 4.294 0 0 1-4.29 4.29h-.632v-4.364a1.65 1.65 0 1 0-3.301 0v8.297a4.295 4.295 0 0 1-4.29 4.29h-16.595a4.295 4.295 0 0 1-4.29-4.29v-16.595a4.295 4.295 0 0 1 4.29-4.29h8.297a1.65 1.65 0 1 0 0-3.3h-4.363v-.633a4.295 4.295 0 0 1 4.29-4.29h16.595a4.294 4.294 0 0 1 4.289 4.29v16.595Z" fill="#fff" fill-rule="evenodd" data-name="Контур 376"/><g data-name="Сгруппировать 492"><path d="M755.307 1155.287a5.992 5.992 0 0 1-4.249-1.758 6.017 6.017 0 0 1 0-8.5l4.56-4.56a1.65 1.65 0 1 1 2.334 2.334l-4.56 4.56a2.711 2.711 0 0 0 0 3.831 2.713 2.713 0 0 0 3.83 0l6.95-6.949a2.714 2.714 0 0 0 0-3.831 1.65 1.65 0 1 1 2.335-2.334 6.019 6.019 0 0 1 0 8.5l-6.95 6.95a5.993 5.993 0 0 1-4.25 1.757Z" fill="#fff" fill-rule="evenodd" data-name="Контур 377"/><path d="M761.833 1144.404c-.422 0-.845-.161-1.167-.483a6.018 6.018 0 0 1 0-8.5l6.949-6.95a6.018 6.018 0 0 1 8.5 0 6.017 6.017 0 0 1 0 8.5l-4.56 4.56a1.65 1.65 0 1 1-2.335-2.333l4.56-4.562a2.711 2.711 0 0 0 0-3.83 2.71 2.71 0 0 0-3.83 0l-6.95 6.949a2.714 2.714 0 0 0 0 3.832 1.65 1.65 0 0 1-1.167 2.817Z" fill="#fff" fill-rule="evenodd" data-name="Контур 378"/></g></g></svg>