<svg xmlns="http://www.w3.org/2000/svg" width="20" height="20" viewBox="18 11 20 20"><g data-name="ico-file"><path d="M24.709 11h9.79c.908 0 1.768.3 2.421.847.696.582 1.08 1.368 1.08 2.215v13.876c0 .847-.384 1.633-1.08 2.215-.653.546-1.513.847-2.421.847H21.502c-.908 0-1.768-.3-2.422-.847-.696-.582-1.08-1.368-1.08-2.215V16.742c0-.457.37-.827.827-.827h5.055v-4.088c0-.457.37-.827.827-.827Zm9.79 18.346c.52 0 1.004-.164 1.36-.462.314-.262.487-.598.487-.946V14.062c0-.348-.173-.684-.487-.946-.356-.298-.84-.462-1.36-.462h-8.963v4.088c0 .457-.37.827-.827.827h-5.055v10.37c0 .347.173.683.487.945.356.298.84.462 1.36.462H34.5Z" fill="#fff" fill-rule="evenodd" data-name="Контур 250"/><path d="M24.709 11a.826.826 0 0 1 .827.827v4.915c0 .457-.37.827-.827.827h-5.882a.827.827 0 0 1-.53-1.462l5.882-4.915a.827.827 0 0 1 .53-.192Zm-.827 4.915v-2.319l-2.775 2.319h2.775Z" fill="#fff" fill-rule="evenodd" data-name="Контур 251"/></g></svg>