<svg xmlns="http://www.w3.org/2000/svg" width="28.72" height="31" viewBox="14.258 12.5 28.72 31"><g data-name="ico-user"><path d="M28.837 12.5c4.187 0 7.593 3.406 7.593 7.592s-3.406 7.592-7.593 7.592c-4.187 0-7.593-3.406-7.593-7.592S24.65 12.5 28.837 12.5Zm0 12.829a5.243 5.243 0 0 0 5.238-5.237 5.243 5.243 0 0 0-5.238-5.237 5.243 5.243 0 0 0-5.238 5.237 5.243 5.243 0 0 0 5.238 5.237Z" fill="#bbb" fill-rule="evenodd" data-name="Эллипс 34"/><path d="M22.038 26.515c.397 0 .783.201 1.004.56 1.084 1.762 3.033 2.656 5.795 2.656 2.774 0 4.73-.845 5.81-2.51a1.178 1.178 0 0 1 1.555-.391c2.09 1.148 3.736 2.625 4.89 4.388 1.251 1.912 1.886 4.103 1.886 6.513v.77c0 2.756-2.244 4.999-5 4.999h-18.72c-2.757 0-5-2.243-5-5v-.769c0-2.477.69-4.73 2.054-6.695 1.244-1.794 2.991-3.271 5.192-4.393.171-.086.354-.128.534-.128Zm6.799 5.57c-3.11 0-5.554-.983-7.139-2.858-3.288 1.979-5.085 4.967-5.085 8.504v.77a2.648 2.648 0 0 0 2.645 2.644h18.72a2.648 2.648 0 0 0 2.644-2.645v-.769c0-4.249-2.384-6.825-4.693-8.323-1.586 1.756-4.012 2.677-7.092 2.677Z" fill="#bbb" fill-rule="evenodd" data-name="Контур 46"/></g></svg>