<svg xmlns="http://www.w3.org/2000/svg" width="27.876" height="28" viewBox="454 296 27.876 28"><path d="M477.813 300.063c-5.424-5.42-14.214-5.417-19.634.007a13.882 13.882 0 0 0-2.21 16.738l-1.97 7.192 7.358-1.93a13.871 13.871 0 0 0 6.631 1.69c7.668.002 13.886-6.213 13.888-13.88a13.89 13.89 0 0 0-4.063-9.817Zm-9.818 21.352c-2.067 0-4.094-.555-5.871-1.607l-.422-.25-4.366 1.145 1.165-4.257-.273-.436c-3.385-5.396-1.754-12.517 3.642-15.9 5.396-3.385 12.515-1.754 15.9 3.642s1.754 12.515-3.642 15.9a11.54 11.54 0 0 1-6.129 1.763h-.004Zm6.326-8.638c-.347-.175-2.052-1.013-2.37-1.129-.317-.115-.549-.172-.778.175-.228.347-.896 1.128-1.098 1.36-.202.232-.405.26-.752.087a9.48 9.48 0 0 1-2.788-1.718 10.492 10.492 0 0 1-1.93-2.402c-.202-.347 0-.517.156-.708.318-.374.609-.77.867-1.186a.637.637 0 0 0-.03-.607c-.087-.174-.778-1.88-1.069-2.575-.29-.696-.568-.585-.778-.596-.21-.011-.438-.017-.67-.017-.355.01-.691.166-.925.434a3.895 3.895 0 0 0-1.213 2.893 6.758 6.758 0 0 0 1.416 3.586 15.462 15.462 0 0 0 5.923 5.236c.646.279 1.306.523 1.978.731a4.758 4.758 0 0 0 2.178.137 3.58 3.58 0 0 0 2.334-1.65 2.898 2.898 0 0 0 .203-1.648c-.087-.145-.311-.232-.665-.405l.011.002Z" fill="#fff" fill-rule="evenodd" data-name="ico-wa"/></svg>