<svg xmlns="http://www.w3.org/2000/svg" width="28.022" height="28" viewBox="14.166 14.5 28.022 28"><g data-name="ico-export"><path d="M36.974 42.5H19.38c-2.876 0-5.215-2.296-5.215-5.118v-2.45a1.068 1.068 0 1 1 2.135 0v2.45c0 1.644 1.382 2.983 3.08 2.983h17.593c1.697 0 3.079-1.339 3.079-2.983v-2.45a1.068 1.068 0 1 1 2.135 0v2.45c0 2.822-2.34 5.118-5.214 5.118Z" fill="#888" fill-rule="evenodd" data-name="Контур 69"/><g data-name="Сгруппировать 211"><path d="M28.177 36.046c-.183 0-.367-.047-.531-.141l-9.525-5.463a1.068 1.068 0 0 1 1.063-1.852l8.993 5.158 8.993-5.158a1.068 1.068 0 0 1 1.063 1.852l-9.525 5.463a1.067 1.067 0 0 1-.53.141Z" fill="#888" fill-rule="evenodd" data-name="Контур 70"/><path d="M28.177 36.046c-.59 0-1.068-.478-1.068-1.068v-19.41a1.068 1.068 0 0 1 2.136 0v19.41c0 .59-.478 1.068-1.068 1.068Z" fill="#888" fill-rule="evenodd" data-name="Линия 91"/></g></g></svg>