<svg xmlns="http://www.w3.org/2000/svg" width="39.927" height="40.926" viewBox="76.105 940.537 39.927 40.926"><g data-name="ico-search"><path d="M93.105 943.537c-3.74 0-7.255 1.456-9.9 4.1a13.908 13.908 0 0 0-4.1 9.9c0 3.74 1.456 7.255 4.1 9.9a13.908 13.908 0 0 0 9.9 4.1c3.74 0 7.255-1.456 9.9-4.1a13.908 13.908 0 0 0 4.1-9.9c0-3.74-1.456-7.255-4.1-9.9a13.908 13.908 0 0 0-9.9-4.1m0-3c9.389 0 17 7.611 17 17s-7.611 17-17 17-17-7.611-17-17 7.611-17 17-17Z" fill="#fff" fill-rule="evenodd" data-name="Эллипс 51"/><path d="M114.532 981.463c-.384 0-.768-.146-1.061-.44l-9.927-9.925a1.5 1.5 0 1 1 2.122-2.122l9.926 9.927a1.5 1.5 0 0 1-1.06 2.56Z" fill="#fff" fill-rule="evenodd" data-name="Линия 62"/></g></svg>