<svg xmlns="http://www.w3.org/2000/svg" width="39.426" height="39.463" viewBox="76.105 756.537 39.426 39.463"><g data-name="ico-calendar"><path d="M83.668 796c-4.17 0-7.563-3.393-7.563-7.564V768.58c0-3.402 2.256-6.286 5.351-7.234v-1.161a3.647 3.647 0 0 1 7.295 0v.831h14.184v-.831a3.647 3.647 0 1 1 7.294 0v1.177c3.07.963 5.302 3.835 5.302 7.218v19.857c0 4.171-3.393 7.564-7.563 7.564h-24.3Zm-4.401-7.564a4.407 4.407 0 0 0 4.401 4.402h24.3a4.407 4.407 0 0 0 4.402-4.402v-17.87H79.267v17.87Z" fill="#fff" fill-rule="evenodd" data-name="Объединение 4"/><g data-name="Сгруппировать 188"><path d="M82.58 777.467a2.095 2.095 0 1 1 0 .1z" fill="#fff" fill-rule="evenodd" data-name="Эллипс 43"/><path d="M90.025 777.467a2.095 2.095 0 1 1 0 .1z" fill="#fff" fill-rule="evenodd" data-name="Эллипс 44"/><path d="M97.47 777.467a2.095 2.095 0 1 1 0 .1z" fill="#fff" fill-rule="evenodd" data-name="Эллипс 45"/><path d="M104.916 777.467a2.095 2.095 0 1 1 0 .1z" fill="#fff" fill-rule="evenodd" data-name="Эллипс 46"/></g><g data-name="Сгруппировать 189"><path d="M82.58 786.032a2.095 2.095 0 1 1 0 .1z" fill="#fff" fill-rule="evenodd" data-name="Эллипс 47"/><path d="M90.025 786.032a2.095 2.095 0 1 1 0 .1z" fill="#fff" fill-rule="evenodd" data-name="Эллипс 48"/><path d="M97.47 786.032a2.095 2.095 0 1 1 0 .1z" fill="#fff" fill-rule="evenodd" data-name="Эллипс 49"/><path d="M104.916 786.032a2.095 2.095 0 1 1 0 .1z" fill="#fff" fill-rule="evenodd" data-name="Эллипс 50"/></g></g></svg>