<svg xmlns="http://www.w3.org/2000/svg" width="52.633" height="56.922" viewBox="39.578 21.844 52.633 56.922"><g data-name="logo"><g data-name="Layer 1"><path d="M42.258 77.604c-1.245-.79-2.245-2.673-2.245-4.15v-12.39c0-1.48 1-3.358 2.245-4.15 4.772-3.027 9.763.326 9.763 4.848v10.996c0 4.52-4.991 7.875-9.763 4.846Z" fill="#fff" fill-rule="evenodd" data-name="Контур 33"/><path d="M91.418 48.287a6.057 6.057 0 0 1-1.905 3.76l-9.31 8.766v12.953c0 1.393 1 3.163 2.245 3.907 4.772 2.852 9.763-.307 9.763-4.563V51.103a5.381 5.381 0 0 0-.793-2.816Z" fill="#fff" fill-rule="evenodd" data-name="Контур 34"/><path d="M39.578 46.342a6.016 6.016 0 1 1 0 .1z" fill="#fff" fill-rule="evenodd" data-name="Эллипс 32"/><path d="M88.732 41.808a5.519 5.519 0 0 0-7.807 0L66.462 56.27l-12.04-12.04a9.09 9.09 0 0 1-5.102 10.512L62.558 67.98a5.52 5.52 0 0 0 7.807 0l18.367-18.367a5.517 5.517 0 0 0 0-7.805Z" fill="#fff" fill-rule="evenodd" data-name="Контур 35"/><path d="M44.91 37.085a8.135 8.135 0 0 1-3.391-2.898 7.521 7.521 0 0 1-1.224-4.218 7.455 7.455 0 0 1 1.223-4.206 8.175 8.175 0 0 1 3.39-2.884c1.444-.69 3.08-1.035 4.909-1.035 1.964 0 3.644.412 5.04 1.236 1.395.821 2.888 2.132 2.888 3.414 0 1.22-4.4 2.106-4.4 2.106-.425.204-.901.018-1.166-.372-.603-.888-1.4-1.332-2.392-1.332a2.627 2.627 0 0 0-1.961.804c-.521.537-.78 1.293-.78 2.269 0 .994.26 1.759.78 2.295a2.622 2.622 0 0 0 1.961.803c.994 0 1.791-.443 2.392-1.33.265-.393.74-.58 1.167-.375 0 0 4.399.879 4.399 2.106 0 1.549-1.493 2.593-2.889 3.416-1.396.822-3.075 1.235-5.04 1.235-1.827 0-3.462-.344-4.906-1.034Z" fill="#fff" fill-rule="evenodd" data-name="Контур 36"/><path d="M77.657 37.072a8.186 8.186 0 0 1-3.344-2.9 7.512 7.512 0 0 1-1.208-4.203 7.513 7.513 0 0 1 1.208-4.206 8.08 8.08 0 0 1 3.344-2.884c1.424-.69 3.03-1.035 4.82-1.035 1.807 0 3.424.345 4.85 1.035a7.988 7.988 0 0 1 3.33 2.884 7.585 7.585 0 0 1 1.193 4.206 7.584 7.584 0 0 1-1.194 4.203 8.097 8.097 0 0 1-3.33 2.9c-1.423.698-3.04 1.047-4.85 1.048-1.786 0-3.393-.35-4.819-1.048Zm6.707-4.821c.49-.547.74-1.306.74-2.282 0-.977-.247-1.733-.74-2.27a2.618 2.618 0 0 0-3.773 0c-.493.538-.74 1.294-.74 2.27s.246 1.735.74 2.282a2.589 2.589 0 0 0 3.773 0Z" fill="#fff" fill-rule="evenodd" data-name="Контур 37"/></g></g></svg>