<svg xmlns="http://www.w3.org/2000/svg" width="64" height="57.895" viewBox="136 140.565 64 57.895"><g data-name="loko"><path d="M163.903 141.666a8.2 8.2 0 0 1 3.843-1.098 8.22 8.22 0 0 0-6.88 4.106l-23.763 41.163a8.226 8.226 0 0 0 3.005 11.231c3.934 2.267 8.962.92 11.232-3.01l16.663-28.856-7.108-12.309c-2.27-3.932-.923-8.959 3.008-11.227Z" fill="#00aae7" fill-rule="evenodd" data-name="Контур 129"/><path d="m198.9 185.837-23.77-41.163a8.202 8.202 0 0 0-6.878-4.106 8.221 8.221 0 0 1 6.856 12.326l-7.109 12.308 16.66 28.857c2.271 3.93 7.3 5.279 11.23 3.01a8.228 8.228 0 0 0 3.01-11.232Z" fill="#0054a6" fill-rule="evenodd" data-name="Контур 130"/><path d="M172.099 141.666a8.207 8.207 0 0 0-3.849-1.098l-.045-.003H167.798l-.052.003a8.218 8.218 0 0 0-6.85 12.326l7.107 12.308 7.103-12.308c2.27-3.933.924-8.96-3.007-11.228Z" fill="#043775" fill-rule="evenodd" data-name="Контур 131"/><path d="M176.461 190.002a8.459 8.459 0 0 1-8.457 8.458c-4.667 0-8.458-3.788-8.458-8.458a8.458 8.458 0 1 1 16.915 0Z" fill="#fbae3b" fill-rule="evenodd" data-name="Контур 132"/></g></svg>