<svg xmlns="http://www.w3.org/2000/svg" width="27.814" height="37.05" viewBox="1062.903 -0.05 27.814 37.05"><g data-name="prod"><g data-name="ico-pos"><path d="M1070.688 11.38h9.11a2.562 2.562 0 0 1 2.559 2.558v4.125a2.562 2.562 0 0 1-2.559 2.559h-9.11a2.562 2.562 0 0 1-2.558-2.559v-4.125a2.562 2.562 0 0 1 2.558-2.559Zm9.11 7.416a.733.733 0 0 0 .733-.733v-4.125a.733.733 0 0 0-.733-.732h-9.11a.733.733 0 0 0-.732.732v4.125c0 .404.329.733.732.733h9.11Z" fill="#fff" fill-rule="evenodd" data-name="Прямоугольник 84"/><g data-name="Сгруппировать 213"><path d="M1062.903.868a.968.968 0 1 1 0 .1z" fill="#fff" fill-rule="evenodd" data-name="Эллипс 57"/><path d="M1066.92.868a.968.968 0 1 1 0 .1z" fill="#fff" fill-rule="evenodd" data-name="Эллипс 58"/><path d="M1070.937.868a.968.968 0 1 1 0 .1z" fill="#fff" fill-rule="evenodd" data-name="Эллипс 59"/></g><g data-name="Сгруппировать 214"><path d="M1062.903.868a.968.968 0 1 1 0 .1z" fill="#fff" fill-rule="evenodd" data-name="Эллипс 60"/><path d="M1066.92.868a.968.968 0 1 1 0 .1z" fill="#fff" fill-rule="evenodd" data-name="Эллипс 61"/><path d="M1070.937.868a.968.968 0 1 1 0 .1z" fill="#fff" fill-rule="evenodd" data-name="Эллипс 62"/></g><g data-name="Сгруппировать 215"><path d="M1062.903.868a.968.968 0 1 1 0 .1z" fill="#fff" fill-rule="evenodd" data-name="Эллипс 63"/><path d="M1066.92.868a.968.968 0 1 1 0 .1z" fill="#fff" fill-rule="evenodd" data-name="Эллипс 64"/><path d="M1070.937.868a.968.968 0 1 1 0 .1z" fill="#fff" fill-rule="evenodd" data-name="Эллипс 65"/></g><path d="M1078.378 4.735h-6.241a.457.457 0 0 1 0-.913h6.24a.457.457 0 0 1 0 .913Z" fill="#fff" fill-rule="evenodd" data-name="Линия 94"/><path d="M1078.378 6.975h-6.241a.457.457 0 0 1 0-.913h6.24a.457.457 0 0 1 0 .913Z" fill="#fff" fill-rule="evenodd" data-name="Линия 95"/><path d="M1069.724 1h11.038c.505 0 .913.409.913.913v6.814a.913.913 0 0 1-.913.913h-11.038a.913.913 0 0 1-.913-.913V1.913c0-.504.409-.913.913-.913Zm10.125 1.826h-9.212v4.988h9.212V2.826Z" fill="#fff" fill-rule="evenodd" data-name="Прямоугольник 85"/><path d="M1068.19 8h14.107a3.791 3.791 0 0 1 3.787 3.787v21.426a3.791 3.791 0 0 1-3.787 3.787h-14.107a3.791 3.791 0 0 1-3.787-3.787V11.787A3.791 3.791 0 0 1 1068.19 8Zm14.107 26.26c.578 0 1.047-.47 1.047-1.047V11.787c0-.578-.47-1.047-1.047-1.047h-14.107c-.578 0-1.048.47-1.048 1.047v21.426c0 .578.47 1.048 1.048 1.048h14.107Z" fill="#fff" fill-rule="evenodd" data-name="Прямоугольник 86"/><path d="M1086.263 12.118h1.535c1.61 0 2.92 1.31 2.92 2.92v16.01c0 1.61-1.31 2.919-2.92 2.919h-1.535a2.922 2.922 0 0 1-2.919-2.92v-16.01c0-1.61 1.31-2.919 2.92-2.919Zm1.535 19.11a.18.18 0 0 0 .18-.18v-16.01a.18.18 0 0 0-.18-.18h-1.535a.18.18 0 0 0-.18.18v16.01c0 .099.081.18.18.18h1.535Z" fill="#fff" fill-rule="evenodd" data-name="Прямоугольник 87"/></g></g></svg>