<svg xmlns="http://www.w3.org/2000/svg" width="12.946" height="21.036"><g data-name="Сгруппировать 167"><path d="M6.363 15.858a1.22 1.22 0 0 1-1.221-1.22v-2.912c0-.674.546-1.22 1.22-1.22h.11a4.037 4.037 0 0 0 4.032-4.033 4.037 4.037 0 0 0-4.032-4.032 4.036 4.036 0 0 0-4.03 4.032 1.22 1.22 0 1 1-2.442 0A6.48 6.48 0 0 1 6.472 0a6.48 6.48 0 0 1 6.474 6.473c0 3.191-2.32 5.85-5.363 6.378v1.786a1.22 1.22 0 0 1-1.22 1.221Z" fill="#888" fill-rule="evenodd" data-name="Контур 49"/><path d="M4.292 18.805a2.18 2.18 0 1 1 0 .1z" fill="#888" fill-rule="evenodd" data-name="Эллипс 40"/></g></svg>