<svg xmlns="http://www.w3.org/2000/svg" xmlns:xlink="http://www.w3.org/1999/xlink" width="40" height="40" viewBox="0 0 40 40">
  <defs>
    <filter id="Многоугольник_2">
      <feOffset dx="1" dy="6" input="SourceAlpha"/>
      <feGaussianBlur stdDeviation="3" result="blur"/>
      <feFlood flood-opacity="0.62" result="color"/>
      <feComposite operator="out" in="SourceGraphic" in2="blur"/>
      <feComposite operator="in" in="color"/>
      <feComposite operator="in" in2="SourceGraphic"/>
    </filter>
    <filter id="Многоугольник_1">
      <feOffset dx="-1" dy="-6" input="SourceAlpha"/>
      <feGaussianBlur stdDeviation="3" result="blur-2"/>
      <feFlood flood-color="#fff" flood-opacity="0.251" result="color-2"/>
      <feComposite operator="out" in="SourceGraphic" in2="blur-2"/>
      <feComposite operator="in" in="color-2"/>
      <feComposite operator="in" in2="SourceGraphic"/>
    </filter>
  </defs>
  <g id="Сгруппировать_521" data-name="Сгруппировать 521" transform="translate(-150)">
    <g data-type="innerShadowGroup">
      <path id="Многоугольник_2-2" data-name="Многоугольник 2" d="M13.739,12.522a7,7,0,0,1,12.522,0L34.935,29.87A7,7,0,0,1,28.674,40H11.326A7,7,0,0,1,5.065,29.87Z" transform="translate(190) rotate(90)" fill="#1a4979"/>
      <g transform="matrix(1, 0, 0, 1, 150, 0)" filter="url(#Многоугольник_2)">
        <path id="Многоугольник_2-3" data-name="Многоугольник 2" d="M13.739,12.522a7,7,0,0,1,12.522,0L34.935,29.87A7,7,0,0,1,28.674,40H11.326A7,7,0,0,1,5.065,29.87Z" transform="translate(40) rotate(90)" fill="#fff"/>
      </g>
    </g>
    <g transform="matrix(1, 0, 0, 1, 150, 0)" filter="url(#Многоугольник_1)">
      <path id="Многоугольник_1-2" data-name="Многоугольник 1" d="M13.739,12.522a7,7,0,0,1,12.522,0L34.935,29.87A7,7,0,0,1,28.674,40H11.326A7,7,0,0,1,5.065,29.87Z" transform="translate(40) rotate(90)" fill="#fff"/>
    </g>
  </g>
</svg>
