<svg xmlns="http://www.w3.org/2000/svg" width="64" height="63.954" viewBox="136.5 2193.173 64 63.954"><g data-name="unicr"><path d="M200.477 2225.15c0 17.664-14.266 31.976-31.93 31.976-17.665 0-32.047-14.312-32.047-31.976 0-17.665 14.358-31.977 32.023-31.977 17.665 0 31.977 14.312 31.977 31.977" fill="#e51e26" fill-rule="evenodd" data-name="Контур 394"/><path d="M166.488 2216.27s3.7-4.785 4.047-5.363c.347-.578.485-1.064-.509-1.688-.994-.624-4.347-2.59-5.017-3.098-.67-.509-.555-2.382 1.41-2.775 1.965-.393 18.96-1.803 25.572-1.087 6.613.717 5.711 2.59 5.758 4.116.046 1.526-2.66 3.723-6.266 6.983 0 0-5.966 5.526-10.312 9.318-4.347 3.791-18.266 15.514-20.972 17.618-2.705 2.127-13.179 9.92-13.872 10.428-.67.508-2.59 2.034-3.607.97-1.018-1.063 0-2.265.531-2.982.555-.74 21.688-30.566 23.237-32.44" fill="#fff" fill-rule="evenodd" data-name="Контур 395"/><path d="M197.379 2204.063c.277.647.508 1.896.416 2.289-.37 1.48-2.66 3.722-6.266 6.982 0 0-5.965 5.526-10.312 9.318-4.347 3.792-18.266 15.515-20.948 17.619-2.705 2.127-13.18 9.919-13.873 10.428-.509.393-2.82.716-3.838.693.323.463.902.994 1.526 1.572 1.063 1.04 2.936-.462 3.607-.97.67-.51 11.167-8.301 13.873-10.428 2.705-2.128 16.6-13.827 20.948-17.619 4.346-3.792 10.289-9.318 10.289-9.318 3.607-3.26 5.572-5.017 5.965-6.497.162-.694.416-2.82-1.387-4.07" fill="#e51e26" fill-rule="evenodd" data-name="Контур 396"/></g></svg>